<?xml version="1.0" encoding="UTF-8"?>
<svg xmlns="http://www.w3.org/2000/svg" xmlns:xlink="http://www.w3.org/1999/xlink" version="1.1" id="Ebene_1" x="0px" y="0px" viewBox="0 0 720.2 229" style="enable-background:new 0 0 720.2 229;" xml:space="preserve">
<style type="text/css">
	.st0{fill:#C54312;}
</style>
<path class="st0" d="M89.5,205.9c-21.4,0-37.7-5.4-49-16.2c-11.2-10.8-16.9-26.2-16.9-46.1V83.5c0-19.9,5.7-35.3,17-46.1  C52,26.6,68.4,21.2,89.8,21.2c13.8,0,25.8,2.4,36,7.1c10.2,4.7,18.1,11.3,23.3,20.1c4.5,7.8,7.1,19.3,5.4,31.8  c-0.2,1.5-0.6,2.7-2.2,2.7h-11.6c-1.6,0-3-0.6-3.1-2.3c-0.1-1.7,0-11-2.2-18.5c-1.7-5.8-5-10.5-9.3-14.4c-8.4-7.6-20.4-11.4-36-11.4  c-15.8,0-27.9,4-36.4,12.1c-8.5,8.1-12.8,19.6-12.8,34.7v60.7c0,15.1,4.3,26.6,12.8,34.7c8.5,8.1,20.7,12.1,36.4,12.1  s27.9-3.8,36.3-11.4c7.4-6.7,11.5-17.2,11.5-32.5c0-1.5,0.7-2.4,2.3-2.4l11.8-0.2c1.4,0,2.5,0.9,2.4,2.7  c-0.2,12.6-1.2,22.6-6.4,31.4c-5.2,8.8-11.5,15.3-22.4,20.6C115.8,203.6,103.5,205.9,89.5,205.9z"></path>
<path class="st0" d="M618.7,205.9c-21.4,0-37.7-5.4-49-16.2c-11.2-10.8-16.9-26.2-16.9-46.1V83.5c0-19.9,5.7-35.3,17-46.1  c11.3-10.8,27.7-16.2,49.1-16.2c13.8,0,25.8,2.4,36,7.1c10.2,4.7,18.1,11.3,23.3,20.1c4.5,7.8,7.1,19.3,5.4,31.8  c-0.2,1.5-0.6,2.7-2.2,2.7h-11.6c-1.6,0-3-0.6-3.1-2.3c-0.1-1.7,0-11-2.2-18.5c-1.7-5.8-5-10.5-9.3-14.4c-8.4-7.6-20.4-11.4-36-11.4  c-15.8,0-27.9,4-36.4,12.1c-8.5,8.1-12.8,19.6-12.8,34.7v60.7c0,15.1,4.3,26.6,12.8,34.7c8.5,8.1,20.7,12.1,36.4,12.1  s27.9-3.8,36.3-11.4c7.4-6.7,11.5-17.2,11.5-32.5c0-1.5,0.7-2.4,2.3-2.4l11.8-0.2c1.4,0,2.5,0.9,2.4,2.7  c-0.2,12.6-1.2,22.6-6.4,31.4c-5.2,8.8-11.5,15.3-22.4,20.6C645,203.6,632.7,205.9,618.7,205.9z"></path>
<path class="st0" d="M362.1,202.6c-1.5,0-2.2-0.7-2.2-2.2V26.6c0-1.4,0.7-2.2,2.2-2.2h47.6c20.1,0,35.1,3.6,45,10.9  c9.9,7.3,14.8,18.3,14.8,33.2c0,10.2-2.5,18.5-7.5,25c-5,6.5-12.8,11.6-23.5,15.2v0.3c12.5,2.2,22.1,7,28.8,14.4  c6.7,7.4,10.1,17.4,10.1,29.9c0,16.9-5.4,29.3-16,37.3c-10.7,8-27.7,12-51.1,12H362.1z M377.1,103.3h34.8c13.4,0,23.5-2.8,30.3-8.3  c6.8-5.5,10.2-13.6,10.2-24.3c0-11.2-3.5-19.3-10.6-24.1c-7.1-4.8-18.6-7.2-34.5-7.2h-30.2V103.3z M377.1,187.6H410  c18.1,0,31.1-2.8,38.8-8.3c7.7-5.5,11.6-14.6,11.6-27.1c0-11.8-3.9-20.5-11.8-26.2c-7.9-5.7-19.7-8.6-35.5-8.6h-35.9V187.6z"></path>
<path class="st0" d="M504.5,202.6c-1.5,0-2.2-0.7-2.2-2.2V26.6c0-1.4,0.7-2.2,2.2-2.2h12.8c1.4,0,2.2,0.7,2.2,2.2v173.8  c0,1.5-0.7,2.2-2.2,2.2H504.5z"></path>
<g>
	<path class="st0" d="M282.2,162.4c-5.9,6.4-15,9.6-27.1,9.6c-2.9,0-5.7-0.2-8.2-0.6c7.9,4.8,18.1,7.2,30.6,7.2   c16,0,28.2-3.9,36.7-11.6c8.4-7.7,12.7-18.8,12.7-33.4V76.9c0-14.6-4.2-25.7-12.7-33.4c-8.4-7.7-20.7-11.6-36.7-11.6   c-15.8,0-28,3.9-36.5,11.6c-5.8,5.2-9.6,12.1-11.5,20.5c6-5.6,14.6-8.3,25.7-8.3c12.2,0,21.2,3.2,27.1,9.5   c5.9,6.3,8.9,15.6,8.9,27.9v41.6C291.1,146.7,288.2,155.9,282.2,162.4z"></path>
	<path class="st0" d="M277.4,191.5c-21.3,0-37.4-5-48.2-15.1c-10.8-10.1-16.3-24.3-16.3-42.6V76.7c0-18.5,5.4-32.7,16.3-42.7   c8.8-8.1,21.1-13,36.9-14.5c-3.5-0.3-7.2-0.4-11-0.4c-25.7,0-45.1,6-58.2,18.1c-13.1,12.1-19.7,29.9-19.7,53.3v46.6   c0,23.3,6.6,41,19.7,53.1c13.1,12.2,32.5,18.3,58.2,18.3c25.7,0,45.1-6.1,58.3-18.3c3.7-3.4,6.9-7.3,9.5-11.6   C312.3,187.2,297.1,191.5,277.4,191.5z"></path>
</g>
<g>
</g>
<g>
</g>
<g>
</g>
<g>
</g>
<g>
</g>
<g>
</g>
</svg>
