<?xml version="1.0" encoding="UTF-8" standalone="no"?>
<!-- Created with Inkscape (http://www.inkscape.org/) -->

<svg
   width="464.35919"
   height="500"
   viewBox="0 0 122.86171 132.29167"
   version="1.1"
   id="svg3825"
   inkscape:version="1.2.2 (b0a8486541, 2022-12-01)"
   sodipodi:docname="trr379_logo.svg"
   xmlns:inkscape="http://www.inkscape.org/namespaces/inkscape"
   xmlns:sodipodi="http://sodipodi.sourceforge.net/DTD/sodipodi-0.dtd"
   xmlns="http://www.w3.org/2000/svg"
   xmlns:svg="http://www.w3.org/2000/svg">
  <sodipodi:namedview
     id="namedview3827"
     pagecolor="#ffffff"
     bordercolor="#666666"
     borderopacity="1.0"
     inkscape:showpageshadow="2"
     inkscape:pageopacity="0.0"
     inkscape:pagecheckerboard="0"
     inkscape:deskcolor="#d1d1d1"
     inkscape:document-units="mm"
     showgrid="false"
     inkscape:zoom="1.6819304"
     inkscape:cx="188.77119"
     inkscape:cy="287.76458"
     inkscape:window-width="3440"
     inkscape:window-height="1370"
     inkscape:window-x="0"
     inkscape:window-y="30"
     inkscape:window-maximized="1"
     inkscape:current-layer="layer1" />
  <defs
     id="defs3822" />
  <g
     inkscape:label="Layer 1"
     inkscape:groupmode="layer"
     id="layer1"
     transform="translate(11.864674,-69.411893)">
    <g
       id="g1536"
       transform="matrix(0.86236138,0,0,0.83523205,552.80104,-843.68415)"
       style="font-size:91.4977px;line-height:195.038px;font-family:'Roboto Slab';word-spacing:20.7331px;white-space:pre;fill:#142f64;stroke-width:4.31941;stroke-linecap:butt;stroke-linejoin:round;stroke-miterlimit:100000">
      <path
         style="fill:#f0b555;stroke-width:0.250127;stroke-linecap:butt;stroke-linejoin:round;stroke-miterlimit:100000"
         d="m -620.83424,1211.8025 c -15.90819,-1.6985 -28.83723,-13.058 -32.82501,-28.8402 -0.96074,-3.8022 -1.23377,-6.5803 -1.09839,-11.1763 0.13598,-4.6175 0.86026,-8.5511 2.27202,-12.34 4.43961,-11.9148 14.08824,-20.8264 25.87724,-23.9004 7.01848,-1.8301 14.51182,-1.5404 21.37461,0.8265 1.22866,0.4237 2.40672,0.8647 2.6179,0.98 0.30598,0.1669 -0.10158,0.7221 -2.00647,2.7334 -4.39756,4.643 -7.62157,9.718 -9.96252,15.6821 l -0.79807,2.0333 -2.33711,0.1601 c -5.10127,0.3494 -9.07073,2.6271 -11.72851,6.7299 -2.94229,4.542 -3.32371,10.3134 -1.00596,15.2216 2.40814,5.0996 8.40169,8.8278 13.59561,8.4568 l 1.4029,-0.1003 0.78584,2.0486 c 1.22946,3.205 2.74876,6.1874 4.6163,9.0621 1.81342,2.7913 5.46295,7.201 7.04244,8.5093 l 0.93948,0.7782 -1.22291,0.5431 c -4.64477,2.063 -12.1316,3.1695 -17.53939,2.5921 z m 28.41932,-9.6513 c 0.24505,-0.2796 0.50093,-0.5083 0.56863,-0.5083 0.0677,0 -0.0774,0.2289 -0.32245,0.5083 -0.24505,0.2796 -0.50094,0.5083 -0.56863,0.5083 -0.0677,0 0.0774,-0.2289 0.32245,-0.5083 z m -5.6683,-2.6051 -1.71653,-1.8427 1.78467,1.7723 c 1.6576,1.6461 1.89709,1.913 1.71653,1.913 -0.0375,0 -0.84058,-0.8292 -1.78467,-1.8426 z m 8.74531,-0.5719 c 0.31799,-0.3495 0.63353,-0.6354 0.70122,-0.6354 0.0677,0 -0.13706,0.2858 -0.45506,0.6354 -0.31798,0.3495 -0.63353,0.6354 -0.70122,0.6354 -0.0677,0 0.13707,-0.2857 0.45506,-0.6354 z m -17.72358,-14.7815 c 0,-0.1386 0.30464,-0.5294 0.67694,-0.8684 l 0.67694,-0.6161 -0.6154,0.7625 c -0.33848,0.4193 -0.64309,0.8101 -0.67694,0.8684 -0.0339,0.058 -0.0616,-0.01 -0.0616,-0.1464 z m 26.60481,-3.7931 c 0.0119,-0.2961 0.0702,-0.3564 0.14871,-0.1536 0.0711,0.1836 0.0624,0.4027 -0.0194,0.4872 -0.0818,0.085 -0.13996,-0.066 -0.12929,-0.3338 z m 0.24616,-1.5249 c 0.0119,-0.2961 0.0702,-0.3564 0.14871,-0.1536 0.0711,0.1835 0.0624,0.4026 -0.0193,0.4871 -0.0818,0.084 -0.13997,-0.066 -0.1293,-0.3338 z m 0.27473,-2.012 c 0.005,-0.4194 0.0602,-0.5602 0.1226,-0.313 0.0624,0.2473 0.0583,0.5904 -0.009,0.7625 -0.0674,0.172 -0.11851,-0.031 -0.11349,-0.4496 z m -22.92152,-1.0378 c 0.0119,-0.2961 0.0702,-0.3564 0.14871,-0.1536 0.0711,0.1835 0.0624,0.4027 -0.0193,0.4871 -0.0818,0.084 -0.13997,-0.066 -0.12929,-0.3337 z m 0.30051,-2.6475 c 0,-0.7688 0.0462,-1.0833 0.10255,-0.6989 0.0564,0.3844 0.0564,1.0134 0,1.3978 -0.0564,0.3845 -0.10255,0.07 -0.10255,-0.6989 z m 51.68898,-2.4745 c 0.64719,-0.053 1.64414,-0.052 2.21545,0 0.57132,0.053 0.0418,0.096 -1.17669,0.096 -1.21849,-8e-4 -1.68593,-0.044 -1.03876,-0.097 z m -29.07708,-1.3378 c 0,-0.3495 0.0559,-0.4925 0.12416,-0.3176 0.0683,0.1747 0.0683,0.4606 0,0.6354 -0.0683,0.1747 -0.12416,0.031 -0.12416,-0.3176 z m -0.26558,-2.1815 c 0.0119,-0.2961 0.0702,-0.3564 0.14871,-0.1537 0.0711,0.1836 0.0624,0.4027 -0.0193,0.4872 -0.0818,0.084 -0.13997,-0.066 -0.12929,-0.3337 z m -25.89773,-3.8547 c -0.3062,-0.4032 -0.29749,-0.4122 0.093,-0.096 0.23693,0.1921 0.43078,0.392 0.43078,0.4448 0,0.2093 -0.20216,0.074 -0.52373,-0.3487 z m 29.43214,-3.9395 -0.72299,-0.826 0.80002,0.7465 c 0.74573,0.6958 0.91317,0.9055 0.72299,0.9055 -0.0424,0 -0.40237,-0.3717 -0.80002,-0.826 z m -24.47752,-9.182 c 0,-0.053 0.19387,-0.253 0.43078,-0.4448 0.39043,-0.3162 0.39914,-0.3072 0.093,0.096 -0.3216,0.4233 -0.52372,0.558 -0.52372,0.3488 z m 1.60003,-1.9373 c 0.24505,-0.2796 0.50093,-0.5083 0.56863,-0.5083 0.0677,0 -0.0774,0.2287 -0.32245,0.5083 -0.24505,0.2796 -0.50094,0.5083 -0.56863,0.5083 -0.0677,0 0.0774,-0.2288 0.32245,-0.5083 z m 10.6766,-0.4448 c -0.3062,-0.4031 -0.29749,-0.4121 0.093,-0.096 0.41004,0.3321 0.54044,0.5408 0.33785,0.5408 -0.0511,0 -0.24497,-0.2002 -0.43078,-0.4448 z m 42.83199,-0.7625 c -0.3062,-0.4031 -0.29749,-0.4121 0.093,-0.096 0.41004,0.332 0.54044,0.5407 0.33785,0.5407 -0.0511,0 -0.24497,-0.2002 -0.43078,-0.4448 z m -4.58411,0.01 c 0.37231,-0.058 0.98156,-0.058 1.35388,0 0.37232,0.058 0.0677,0.1059 -0.67694,0.1059 -0.74464,0 -1.04926,-0.048 -0.67694,-0.1059 z m -45.72439,-2.1054 c 0.24505,-0.2796 0.50094,-0.5083 0.56863,-0.5083 0.0677,0 -0.0774,0.2287 -0.32245,0.5083 -0.24505,0.2796 -0.50094,0.5083 -0.56863,0.5083 -0.0677,0 0.0774,-0.2287 0.32245,-0.5083 z m 3.42287,-1.3343 -0.46893,-0.5719 0.55386,0.4842 c 0.52049,0.455 0.66592,0.6595 0.46893,0.6595 -0.0467,0 -0.29593,-0.2573 -0.55386,-0.5718 z m 32.50114,-1.0166 -0.723,-0.826 0.80002,0.7464 c 0.74574,0.6959 0.91317,0.9056 0.723,0.9056 -0.0424,0 -0.40238,-0.3717 -0.80002,-0.826 z m -14.92343,-6.9723 c 0.17768,-0.073 0.39001,-0.064 0.47181,0.02 0.0818,0.084 -0.0636,0.1445 -0.32309,0.1335 -0.28674,-0.012 -0.3451,-0.072 -0.14871,-0.1536 z m 5.90786,0 c 0.17768,-0.073 0.39001,-0.064 0.47181,0.02 0.0818,0.084 -0.0636,0.1445 -0.32309,0.1335 -0.28678,-0.012 -0.3451,-0.072 -0.14871,-0.1536 z m 56.92875,-0.483 c 0.0119,-0.296 0.0702,-0.3563 0.14871,-0.1535 0.0711,0.1835 0.0624,0.4027 -0.0193,0.4871 -0.0818,0.084 -0.13997,-0.066 -0.1293,-0.3335 z m 0,-6.608 c 0.0119,-0.2961 0.0702,-0.3563 0.14871,-0.1536 0.0711,0.1835 0.0624,0.4027 -0.0193,0.4872 -0.0818,0.084 -0.13997,-0.066 -0.1293,-0.3336 z m -60.38598,-2.5775 c 0.44244,-0.057 1.10707,-0.055 1.47697,0 0.36987,0.058 0.008,0.1042 -0.80444,0.1028 -0.81233,0 -1.11497,-0.049 -0.67253,-0.1054 z"
         id="path209"
         sodipodi:nodetypes="csccssssscscsccssscscccscscscssscscsccccsccccsccccscccccccccscccssssccsccscssscscccscsssscssssscsssssssccsccccsccsssssssssccsscscsssccccccccccccccccccccccccc" />
      <path
         style="fill:#ef9152;stroke-width:0.250127;stroke-linecap:butt;stroke-linejoin:round;stroke-miterlimit:100000"
         d="m -551.49067,1251.5235 c 0.84618,-0.05 2.23083,-0.05 3.07701,0 0.84618,0.05 0.15384,0.09 -1.53851,0.09 -1.69235,0 -2.38468,-0.041 -1.5385,-0.09 z m -3.43087,-0.2396 c 0.17768,-0.073 0.39001,-0.065 0.47181,0.019 0.0818,0.084 -0.0636,0.1444 -0.32309,0.1336 -0.28678,-0.012 -0.3451,-0.073 -0.14871,-0.1536 z m 9.58489,0 c 0.16924,-0.071 0.44616,-0.071 0.6154,0 0.16924,0.071 0.0309,0.1283 -0.30768,0.1283 -0.33849,0 -0.47694,-0.058 -0.30769,-0.1283 z m 1.73851,-0.2596 c 0.17768,-0.073 0.39001,-0.064 0.47181,0.019 0.0818,0.085 -0.0636,0.1444 -0.32309,0.1336 -0.28678,-0.012 -0.3451,-0.072 -0.14871,-0.1536 z m 18.50822,-9.072 c 0,-0.053 0.19386,-0.253 0.43078,-0.4447 0.39043,-0.3161 0.39914,-0.3073 0.0929,0.096 -0.32159,0.4234 -0.52372,0.558 -0.52372,0.3487 z m -51.58228,-1.7466 -0.97307,-1.0802 1.04619,1.0047 c 0.5754,0.5525 1.04618,1.0386 1.04618,1.0801 0,0.1924 -0.21436,-10e-5 -1.1193,-1.0046 z m 54.29005,-1.0491 c 0,-0.053 0.19386,-0.2531 0.43078,-0.4448 0.39043,-0.316 0.39914,-0.3072 0.0929,0.096 -0.32159,0.4234 -0.52372,0.5581 -0.52372,0.3487 z m -29.60085,-11.2552 c 0.16924,-0.071 0.44617,-0.071 0.61541,0 0.16924,0.071 0.0309,0.1282 -0.30769,0.1282 -0.33848,0 -0.47694,-0.058 -0.30768,-0.1282 z m 3.44626,0 c 0.16924,-0.071 0.44616,-0.071 0.6154,0 0.16924,0.071 0.0309,0.1282 -0.30769,0.1282 -0.33848,0 -0.47693,-0.058 -0.30768,-0.1282 z m -24.62158,-7.6398 c 0.43699,-0.056 1.2124,-0.057 1.72313,0 0.51072,0.055 0.15317,0.101 -0.79454,0.1022 -0.94772,10e-4 -1.36558,-0.044 -0.92859,-0.1 z m -3.68692,-0.2393 c 0.16924,-0.071 0.44616,-0.071 0.6154,0 0.16924,0.071 0.0309,0.1283 -0.30772,0.1283 -0.33849,0 -0.47694,-0.058 -0.30768,-0.1283 z m 8.74339,-0.01 c 0.23951,-0.064 0.57183,-0.06 0.73848,0.01 0.16668,0.07 -0.0294,0.1221 -0.43546,0.1171 -0.40617,0 -0.54252,-0.062 -0.303,-0.1267 z m -10.69729,-0.2515 c 0.17768,-0.073 0.39001,-0.065 0.47181,0.019 0.0818,0.084 -0.0636,0.1444 -0.32309,0.1336 -0.28678,-0.011 -0.3451,-0.073 -0.14871,-0.1536 z m 12.80036,0 c 0.17769,-0.073 0.39001,-0.065 0.47181,0.019 0.0818,0.084 -0.0636,0.1444 -0.32308,0.1336 -0.28675,-0.011 -0.34511,-0.073 -0.14871,-0.1536 z m -21.10425,-0.4829 c 0.0119,-0.2961 0.0702,-0.3564 0.14871,-0.1537 0.0711,0.1836 0.0624,0.4027 -0.0193,0.4872 -0.0818,0.084 -0.13997,-0.066 -0.12929,-0.3338 z m 74.34059,-1.2708 c 0.0119,-0.2961 0.0702,-0.3564 0.14871,-0.1537 0.0711,0.1836 0.0624,0.4027 -0.0193,0.4872 -0.0818,0.084 -0.13997,-0.066 -0.1293,-0.3338 z m 0.28384,-2.3934 c 0,-0.4892 0.0507,-0.6893 0.11259,-0.4447 0.0619,0.2446 0.0619,0.6449 0,0.8895 -0.0619,0.2447 -0.11259,0.045 -0.11259,-0.4448 z m -22.93063,-0.6565 c 0.0119,-0.2961 0.0702,-0.3564 0.14871,-0.1536 0.0711,0.1835 0.0624,0.4026 -0.0193,0.4871 -0.0818,0.084 -0.13997,-0.066 -0.12929,-0.3337 z m 0,-4.3207 c 0.0119,-0.2961 0.0702,-0.3564 0.14871,-0.1536 0.0711,0.1836 0.0624,0.4027 -0.0193,0.4871 -0.0818,0.084 -0.13997,-0.066 -0.12929,-0.3337 z m -39.22056,-0.019 c 0.16925,-0.071 0.44617,-0.071 0.6154,0 0.16925,0.07 0.0309,0.1283 -0.30768,0.1283 -0.33848,0 -0.47694,-0.058 -0.30769,-0.1283 z m 4.3125,-0.01 c 0.23951,-0.064 0.57183,-0.06 0.73848,0.01 0.16664,0.07 -0.0294,0.1225 -0.43546,0.1172 -0.40617,0 -0.54253,-0.062 -0.303,-0.1268 z m 57.84366,-0.7134 c 0.003,-0.5591 0.0531,-0.7579 0.11203,-0.4418 0.0589,0.3161 0.0566,0.7737 -0.005,1.0166 -0.0616,0.2431 -0.10981,-0.015 -0.10705,-0.5748 z m -0.28879,-2.5627 c 0.0119,-0.2961 0.0702,-0.3564 0.14871,-0.1536 0.0711,0.1835 0.0624,0.4027 -0.0193,0.4871 -0.0818,0.084 -0.13997,-0.066 -0.1293,-0.3337 z m -0.24617,-1.525 c 0.0119,-0.2961 0.0702,-0.3564 0.14871,-0.1536 0.0711,0.1836 0.0624,0.4027 -0.0193,0.4871 -0.0818,0.084 -0.13997,-0.066 -0.12929,-0.3337 z m -84.55404,-6.015 c -4.45972,-4.5864 -7.37776,-9.2482 -8.88594,-14.1961 l -0.43428,-1.4248 1.03948,-1.3578 c 2.25455,-2.9448 3.30797,-6.016 3.30797,-9.6442 0,-3.5962 -1.2761,-7.2592 -3.43702,-9.8657 -0.46359,-0.5592 -0.84289,-1.1957 -0.84289,-1.4145 0,-0.6256 1.41315,-4.1614 2.50051,-6.2566 2.14465,-4.1323 5.1926,-8.0702 8.47004,-10.9431 l 2.07995,-1.8232 1.63985,1.4865 c 5.74064,5.2037 9.9355,12.8421 11.699,21.3026 0.78263,3.7547 0.78297,10.8 7.4e-4,14.8154 -1.33369,6.8458 -4.13657,12.7977 -8.51737,18.0863 -1.96265,2.3693 -4.36134,4.6028 -4.94332,4.6028 -0.2212,0 -1.87571,-1.5154 -3.67672,-3.3676 z m 75.64142,-12.8349 c -0.3062,-0.4031 -0.2975,-0.4121 0.0929,-0.096 0.41004,0.3322 0.54044,0.5407 0.33785,0.5407 -0.0511,0 -0.24497,-0.2001 -0.43078,-0.4447 z m -54.73939,-1.5885 c 0.66676,-0.6989 1.26768,-1.2708 1.33537,-1.2708 0.0677,0 -0.42245,0.5719 -1.08921,1.2708 -0.66677,0.699 -1.26769,1.2708 -1.33538,1.2708 -0.0677,0 0.42245,-0.5718 1.08922,-1.2708 z m 23.69298,-11.3512 c 0.16924,-0.071 0.44617,-0.071 0.6154,0 0.16924,0.07 0.0309,0.1283 -0.30768,0.1283 -0.33849,0 -0.47694,-0.058 -0.30769,-0.1283 z m 5.41554,0 c 0.16924,-0.071 0.44616,-0.071 0.6154,0 0.16924,0.07 0.0309,0.1283 -0.30769,0.1283 -0.33848,0 -0.47693,-0.058 -0.30768,-0.1283 z"
         id="path207"
         sodipodi:nodetypes="ssssccccccssccccccccccccscsssccccccsscccsscccccccssssccccccccccccccccsscccssccsssscsscccssccccsccccccccsccccsscccssccssccssssscssccssccscccscscccsccccscc" />
      <path
         style="fill:#dd1a17;stroke-width:0.250127;stroke-linecap:butt;stroke-linejoin:round;stroke-miterlimit:100000"
         d="m -556.22927,1251.066 c -8.25168,-1.567 -15.1558,-5.3801 -20.84266,-11.5111 -3.41992,-3.6871 -6.02799,-7.8814 -7.82548,-12.585 -0.85249,-2.2308 -1.83581,-5.9672 -2.09498,-7.9605 l -0.17085,-1.3141 1.85181,0.6072 c 6.17927,2.026 14.48999,2.5874 20.57482,1.3897 0.7365,-0.1448 1.4049,-0.1766 1.48533,-0.07 0.0804,0.1064 0.57669,0.8588 1.1028,1.6724 2.66797,4.1255 7.45325,6.7867 12.1865,6.7771 4.16881,-0.01 7.26466,-1.3719 10.35975,-4.5627 3.12145,-3.218 4.41972,-6.3698 4.41972,-10.7297 0,-2.5727 -0.46649,-4.5521 -1.64675,-6.9872 l -0.88397,-1.8239 1.11238,-1.3531 c 3.78387,-4.6026 7.13607,-11.5721 8.72097,-18.1316 l 0.64098,-2.6529 1.01295,0.8178 c 1.78484,1.4409 4.70664,4.5896 6.23898,6.7234 6.72658,9.3668 9.09559,20.6058 6.71831,31.8729 -1.87841,8.9028 -7.0258,17.1428 -14.14578,22.6448 -3.9746,3.0715 -9.72857,5.7508 -14.90673,6.9414 -2.61958,0.6023 -11.21045,0.7477 -13.90809,0.2354 z"
         id="path205" />
      <path
         style="fill:#0b8f37;stroke-width:0.250127;stroke-linecap:butt;stroke-linejoin:round;stroke-miterlimit:100000"
         d="m -546.05975,1170.4622 c 0.17768,-0.073 0.39001,-0.065 0.47181,0.019 0.0818,0.085 -0.0636,0.1444 -0.32309,0.1336 -0.28678,-0.012 -0.3451,-0.073 -0.14871,-0.1536 z m 18.39162,-7.7688 c -0.0556,-0.1748 -0.34108,-1.2327 -0.63431,-2.351 -1.5408,-5.8757 -4.66146,-12.0386 -8.65376,-17.0899 l -1.45463,-1.8404 0.6014,-0.8282 c 0.95758,-1.3186 1.63644,-2.8836 2.14976,-4.9559 2.35978,-9.5263 -4.66542,-18.8494 -14.21884,-18.8697 -2.45365,-0.01 -4.0346,0.3801 -6.47384,1.5776 -2.71601,1.3334 -5.37329,4.0101 -6.64953,6.6981 l -0.85386,1.7983 -1.05632,-0.2037 c -5.9412,-1.146 -14.36526,-0.5549 -20.42997,1.4336 -1.03531,0.3394 -1.92599,0.5722 -1.97927,0.5171 -0.1939,-0.2002 0.68651,-5.1485 1.31256,-7.377 1.86566,-6.6411 4.88138,-11.9088 9.61504,-16.7952 5.10542,-5.2702 11.70745,-8.9177 19.14341,-10.5765 3.65057,-0.8144 10.96932,-0.8071 14.68295,0.015 7.67052,1.6972 13.80027,5.1112 19.20966,10.699 5.00187,5.1668 8.27741,11.1267 9.92343,18.0559 2.95311,12.4316 -0.0964,25.3108 -8.30996,35.0957 -1.46115,1.7407 -5.27044,5.3151 -5.66431,5.3151 -0.0872,0 -0.20398,-0.1428 -0.25959,-0.3176 z m -46.93152,-1.3979 c -0.3062,-0.4031 -0.2975,-0.4121 0.0929,-0.096 0.41004,0.3318 0.54044,0.5407 0.33785,0.5407 -0.0511,0 -0.24497,-0.2001 -0.43078,-0.4448 z m -3.93858,-4.0665 c -0.3062,-0.4031 -0.29749,-0.4121 0.0929,-0.096 0.41005,0.332 0.54045,0.5408 0.33786,0.5408 -0.0511,0 -0.24498,-0.2002 -0.43079,-0.4448 z m 33.72404,-8.6413 c -0.3062,-0.4031 -0.29749,-0.4121 0.093,-0.096 0.23694,0.1919 0.43078,0.392 0.43078,0.4448 0,0.2092 -0.20216,0.074 -0.52372,-0.3488 z m -29.68784,-12.9475 c 0.23951,-0.064 0.57182,-0.06 0.73848,0.01 0.16664,0.07 -0.0294,0.1223 -0.43547,0.1172 -0.40616,-0.01 -0.54252,-0.062 -0.30299,-0.1266 z m 3.93858,0 c 0.2395,-0.064 0.57182,-0.06 0.73848,0.01 0.16667,0.07 -0.0294,0.1223 -0.43547,0.1172 -0.40617,-0.01 -0.54252,-0.062 -0.303,-0.1266 z"
         id="path203"
         sodipodi:nodetypes="cccccccscsscssccssssscssssccccscccsscccsscccccccccccc" />
      <path
         style="fill:#9c1916;stroke-width:0.250127;stroke-linecap:butt;stroke-linejoin:round;stroke-miterlimit:100000"
         d="m -574.69133,1210.6418 c -3.82117,-0.3821 -7.30921,-1.1956 -10.54029,-2.4588 l -1.92465,-0.7523 0.16756,-1.0513 c 0.31308,-1.9639 1.32632,-5.6961 2.07407,-7.6395 2.04614,-5.3182 4.48506,-9.1257 8.48429,-13.2452 4.53311,-4.6695 9.023,-7.5397 14.90351,-9.5271 4.12625,-1.3947 7.04965,-1.8659 11.57466,-1.8659 4.44325,0 7.41832,0.4651 11.37684,1.7785 l 2.63813,0.8754 -0.13163,0.8159 c -0.82233,5.0979 -1.95216,8.9201 -3.68689,12.4728 -1.08954,2.2314 -3.38902,5.8497 -4.76357,7.4956 -0.70319,0.8421 -0.72471,0.8486 -1.65724,0.5083 -0.60792,-0.2219 -1.99808,-0.3383 -3.89873,-0.3272 -3.2914,0.019 -4.93754,0.4872 -7.65678,2.1738 -2.71713,1.6854 -5.90078,6.0413 -6.39222,8.746 -0.0862,0.4745 -0.28362,0.9648 -0.43871,1.0896 -0.67045,0.5397 -7.60404,1.1635 -10.12838,0.9112 z"
         id="path201" />
      <path
         style="fill:#07662e;stroke-width:0.250127;stroke-linecap:butt;stroke-linejoin:round;stroke-miterlimit:100000"
         d="m -554.38306,1170.4701 c -1.94525,-0.2631 -6.61389,-1.4534 -8.47366,-2.1603 -2.70896,-1.0298 -6.64441,-3.1833 -9.07407,-4.9654 -2.65694,-1.9487 -6.57301,-6.0152 -8.46616,-8.7915 -1.74831,-2.5638 -3.90918,-6.8184 -4.86915,-9.5869 -0.89082,-2.5692 -1.6467,-5.9096 -1.39585,-6.1686 0.3496,-0.361 4.9819,-1.8977 7.0474,-2.338 2.8211,-0.6013 6.8043,-0.9251 9.23103,-0.7506 1.93722,0.1394 6.17359,0.7665 6.26216,0.9271 0.0212,0.039 0.46722,0.9824 0.99106,2.0976 2.76996,5.897 9.65688,9.5351 15.63974,8.262 l 1.10772,-0.2357 1.16835,1.3269 c 4.48993,5.0995 7.69897,12.0146 8.89317,19.1639 l 0.13502,0.8084 -1.95189,0.6712 c -3.74443,1.2875 -6.19399,1.6841 -10.95243,1.7734 -2.43699,0.046 -4.8186,0.031 -5.29246,-0.035 z"
         id="path199"
         sodipodi:nodetypes="cssssssscsscsscsscc" />
    </g>
  </g>
</svg>
